<?xml version="1.0" encoding="UTF-8"?>
<svg width="642px" height="202px" viewBox="0 0 642 202" version="1.1" xmlns="http://www.w3.org/2000/svg" xmlns:xlink="http://www.w3.org/1999/xlink">
    <title>logo-text</title>
    <defs>
        <linearGradient x1="100%" y1="48.6882563%" x2="0%" y2="51.3117437%" id="linearGradient-1">
            <stop stop-color="#32C5FF" offset="0%"></stop>
            <stop stop-color="#B620E0" offset="100%"></stop>
            <stop stop-color="#B620E0" offset="100%"></stop>
        </linearGradient>
        <linearGradient x1="100%" y1="48.7863632%" x2="0%" y2="51.2136368%" id="linearGradient-2">
            <stop stop-color="#32C5FF" offset="0%"></stop>
            <stop stop-color="#B620E0" offset="100%"></stop>
            <stop stop-color="#B620E0" offset="100%"></stop>
        </linearGradient>
    </defs>
    <g id="logo-text" stroke="none" stroke-width="1" fill="none" fill-rule="evenodd">
        <g id="Group" transform="translate(37.000000, 31.000000)" fill-rule="nonzero">
            <path d="M19.4793483,89.2740741 L25.6498251,70.9226192 L58.4985399,70.9226192 L64.2455526,89.2740741 L84.4508393,89.2740741 L52.8725169,0 L31.8203019,0 L0,89.2740741 L19.4793483,89.2740741 Z M53.1223022,55.8814815 L30.647482,55.8814815 L42.0651714,21.1259259 L53.1223022,55.8814815 Z M121.253658,89.9555556 L131.634165,41.8029494 L141.894666,89.9555556 L159.475525,89.9555556 L178.436451,23.8518519 L160.615581,23.8518519 L150.415082,71.4586476 L140.454596,23.8518519 L123.113749,23.8518519 L113.693289,71.2767108 L103.492791,23.8518519 L85.1318945,23.8518519 L103.492791,89.9555556 L121.253658,89.9555556 Z M214.418045,92 C224.605126,92 232.52841,88.8103127 238.187899,82.430938 C241.826142,78.4187526 243.867601,74.46675 244.312275,70.5749303 L244.312275,70.5749303 L226.666797,70.5749303 C225.737023,72.5007792 224.665763,74.0053487 223.453015,75.0886388 C221.229645,77.0947314 218.339263,78.0977778 214.78187,78.0977778 C211.426601,78.0977778 208.556432,77.2752798 206.171361,75.6302838 C202.250144,72.9822415 200.16826,68.3682283 199.925711,61.7882443 L199.925711,61.7882443 L245.161198,61.7882443 C245.242048,56.131063 245.060136,51.7979028 244.615462,48.7887638 C243.847388,43.6531666 242.169754,39.1394581 239.582559,35.2476383 C236.71239,30.8342344 233.074147,27.6044252 228.66783,25.5582107 C224.261514,23.5119962 219.309461,22.4888889 213.811671,22.4888889 C204.554364,22.4888889 197.025223,25.5180888 191.224246,31.5764887 C185.42327,37.6348886 182.522782,46.3413308 182.522782,57.6958153 C182.522782,69.812615 185.736563,78.5591791 192.164126,83.9355075 C198.591688,89.3118358 206.009661,92 214.418045,92 Z M227.472422,49.7481481 L200.911271,49.7481481 C201.470874,45.5604938 202.839902,42.2419753 205.018356,39.7925926 C207.19681,37.3432099 210.264633,36.1185185 214.221825,36.1185185 C217.859244,36.1185185 220.907081,37.2740741 223.365337,39.5851852 C225.823592,41.8962963 227.192621,45.2839506 227.472422,49.7481481 L227.472422,49.7481481 Z M282.571495,92 C292.805804,92 300.369851,89.9490821 305.263637,85.8472462 C310.157423,81.7454103 312.604317,76.4530416 312.604317,69.9701401 C312.604317,65.0479371 310.898599,60.9461012 307.487162,57.6646325 C304.035114,54.4231817 298.857041,52.0020981 291.952945,50.4013817 C288.129137,49.5739344 284.894992,48.8365062 282.250509,48.1890969 L281.601673,48.0291199 C277.464088,47.00146 274.88358,46.2115064 273.86015,45.6592593 C272.154432,44.7788652 271.301573,43.3582294 271.301573,41.3973518 C271.301573,39.8366532 272.103666,38.4760443 273.707853,37.3155249 C275.312041,36.1550054 278.002608,35.5747457 281.779555,35.5747457 C286.368749,35.5747457 289.617735,36.7352651 291.526515,39.056304 C292.541823,40.3368771 293.171315,42.0776562 293.414989,44.2786413 L293.414989,44.2786413 L310.776762,44.2786413 C310.005127,36.2750592 307.020121,30.6325337 301.821742,27.3510651 C296.582751,24.1096143 289.820797,22.4888889 281.535881,22.4888889 C272.804229,22.4888889 266.032122,24.6598606 261.219561,29.0018039 C256.406999,33.3437472 254.000718,38.5360711 254.000718,44.5787757 C254.000718,49.7010683 255.543987,53.6228235 258.630524,56.3440415 C261.717062,59.1052773 267.016971,61.4063072 274.530253,63.2471311 C284.967623,65.6882236 290.998555,67.4089938 292.623048,68.4094416 C294.247541,69.4098893 295.059788,70.8705431 295.059788,72.7914028 C295.059788,74.7922983 294.054633,76.29297 292.044322,77.2934178 C290.034012,78.2938655 287.323138,78.7940894 283.911702,78.7940894 C278.104139,78.7940894 274.12413,77.653579 271.971676,75.3725581 C270.753306,74.0919849 269.961366,71.9310177 269.595855,68.8896565 L269.595855,68.8896565 L251.990408,68.8896565 C251.990408,75.6126655 254.477913,81.1451417 259.452924,85.487085 C264.427935,89.8290283 272.134125,92 282.571495,92 Z M355.170264,92 C366.508548,92 374.961824,88.5698375 380.530092,81.7095124 C386.09836,74.8491874 388.882494,66.5906436 388.882494,56.9338811 C388.882494,47.4380646 386.09836,39.2096982 380.530092,32.2487819 C374.961824,25.2878656 366.508548,21.8074074 355.170264,21.8074074 C343.831979,21.8074074 335.378703,25.2878656 329.810435,32.2487819 C324.242167,39.2096982 321.458034,47.4380646 321.458034,56.9338811 C321.458034,66.5906436 324.242167,74.8491874 329.810435,81.7095124 C335.378703,88.5698375 343.831979,92 355.170264,92 Z M355.199789,77.6888889 C350.278871,77.6888889 346.489763,75.8832457 343.832467,72.2719592 C341.175171,68.6606728 339.846523,63.5277769 339.846523,56.8732715 C339.846523,50.2187662 341.175171,45.0960143 343.832467,41.505016 C346.489763,37.9140177 350.278871,36.1185185 355.199789,36.1185185 C360.120708,36.1185185 363.899974,37.9140177 366.537586,41.505016 C369.175199,45.0960143 370.494005,50.2187662 370.494005,56.8732715 C370.494005,63.5277769 369.175199,68.6606728 366.537586,72.2719592 C363.899974,75.8832457 360.120708,77.6888889 355.199789,77.6888889 Z M418.508393,89.9555556 L418.508393,50.226531 C418.508393,46.6331538 418.969107,43.9280271 419.890535,42.111151 C421.573141,38.921524 424.858231,37.3267106 429.745803,37.3267106 C433.95232,37.3267106 436.776696,38.921524 438.218931,42.111151 C439.020172,43.8876521 439.420793,46.7340914 439.420793,50.6504688 L439.420793,50.6504688 L439.420793,89.9555556 L456.667513,89.9555556 L456.667513,50.6504688 C456.667513,47.703092 457.128227,45.1796529 458.049654,43.0801516 C459.852447,39.1233992 463.117506,37.1450229 467.84483,37.1450229 C471.931161,37.1450229 474.735506,38.6792739 476.257864,41.7477758 C477.059106,43.3627768 477.459726,45.4219031 477.459726,47.9251546 L477.459726,47.9251546 L477.459726,89.9555556 L495.006912,89.9555556 L495.127098,48.3490924 C495.127098,44.0693397 494.926788,40.8191502 494.526167,38.5985238 C493.885174,35.2473968 492.64325,32.421145 490.800395,30.1197686 C488.516857,27.2935169 485.972916,25.3151406 483.168571,24.1846399 C480.364226,23.0541392 477.519819,22.4888889 474.635351,22.4888889 C470.308647,22.4888889 466.382565,23.3973269 462.857103,25.2142031 C459.531951,27.0310792 456.747637,29.8775185 454.504161,33.7535208 C453.222175,30.5235189 451.339258,27.8789547 448.85541,25.8198284 C445.770631,23.5992021 441.724362,22.4888889 436.716603,22.4888889 C431.42841,22.4888889 427.121738,23.7808897 423.796586,26.3648913 C421.913669,27.8183922 419.910566,30.2610812 417.787276,33.6929583 L417.787276,33.6929583 L417.787276,24.0635149 L401.141487,24.0635149 L401.141487,89.9555556 L418.508393,89.9555556 Z M537.238189,92 C547.425269,92 555.348554,88.8103127 561.008043,82.430938 C564.646286,78.4187526 566.687745,74.46675 567.132419,70.5749303 L567.132419,70.5749303 L549.486941,70.5749303 C548.557167,72.5007792 547.485907,74.0053487 546.273159,75.0886388 C544.049789,77.0947314 541.159407,78.0977778 537.602013,78.0977778 C534.246745,78.0977778 531.376575,77.2752798 528.991505,75.6302838 C525.070288,72.9822415 522.988404,68.3682283 522.745855,61.7882443 L522.745855,61.7882443 L567.981342,61.7882443 C568.062192,56.131063 567.88028,51.7979028 567.435606,48.7887638 C566.667532,43.6531666 564.989898,39.1394581 562.402703,35.2476383 C559.532534,30.8342344 555.894291,27.6044252 551.487974,25.5582107 C547.081658,23.5119962 542.129605,22.4888889 536.631815,22.4888889 C527.374508,22.4888889 519.845366,25.5180888 514.04439,31.5764887 C508.243414,37.6348886 505.342926,46.3413308 505.342926,57.6958153 C505.342926,69.812615 508.556707,78.5591791 514.98427,83.9355075 C521.411832,89.3118358 528.829805,92 537.238189,92 Z M550.973621,49.7481481 L524.41247,49.7481481 C524.972073,45.5604938 526.341101,42.2419753 528.519555,39.7925926 C530.69801,37.3432099 533.765832,36.1185185 537.723024,36.1185185 C541.360443,36.1185185 544.40828,37.2740741 546.866536,39.5851852 C549.324791,41.8962963 550.69382,45.2839506 550.973621,49.7481481 L550.973621,49.7481481 Z" id="Awesome" fill="url(#linearGradient-1)"></path>
            <path d="M161.889669,130.126984 C165.630279,130.126984 168.701365,129.036012 171.102924,126.854067 C173.489929,124.672122 174.974529,121.839929 175.556725,118.357487 L175.556725,118.357487 L168.897856,118.357487 C168.446654,120.004784 167.879012,121.240256 167.194932,122.063904 C165.957765,123.5956 164.160234,124.361448 161.802339,124.361448 C159.502664,124.361448 157.606888,123.469163 156.11501,121.684592 C154.623132,119.900021 153.877193,117.21594 153.877193,113.632349 C153.877193,110.048757 154.583106,107.277977 155.994932,105.320006 C157.406758,103.362036 159.335283,102.383051 161.780507,102.383051 C164.182066,102.383051 165.994152,103.076649 167.216764,104.463846 C167.900845,105.244144 168.461209,106.400141 168.897856,107.931838 L168.897856,107.931838 L175.622222,107.931838 C175.520338,105.937742 174.778038,103.950872 173.395322,101.971227 C170.891878,98.4454354 166.932943,96.6825397 161.518519,96.6825397 C157.472255,96.6825397 154.139181,97.9974865 151.519298,100.62738 C148.506433,103.647423 147,107.946288 147,113.523974 C147,118.682612 148.324496,122.743052 150.973489,125.705295 C153.622482,128.653088 157.261209,130.126984 161.889669,130.126984 Z M186.525926,129.444444 L186.525926,98.047619 L180.392593,98.047619 L180.392593,129.444444 L186.525926,129.444444 Z M202.540741,130.126984 C206.551734,130.126984 209.542137,128.892876 211.511949,126.424661 C213.481761,123.956446 214.466667,120.985178 214.466667,117.510857 C214.466667,114.094442 213.481761,111.134031 211.511949,108.629625 C209.542137,106.125219 206.551734,104.873016 202.540741,104.873016 C198.529747,104.873016 195.539344,106.125219 193.569533,108.629625 C191.599721,111.134031 190.614815,114.094442 190.614815,117.510857 C190.614815,120.985178 191.599721,123.956446 193.569533,126.424661 C195.539344,128.892876 198.529747,130.126984 202.540741,130.126984 Z M202.551902,124.666667 C200.691724,124.666667 199.259388,124.044087 198.254892,122.798926 C197.250396,121.553766 196.748148,119.78396 196.748148,117.489507 C196.748148,115.195054 197.250396,113.428746 198.254892,112.190581 C199.259388,110.952416 200.691724,110.333333 202.551902,110.333333 C204.412079,110.333333 205.840696,110.952416 206.837751,112.190581 C207.834806,113.428746 208.333333,115.195054 208.333333,117.489507 C208.333333,119.78396 207.834806,121.553766 206.837751,122.798926 C205.840696,124.044087 204.412079,124.666667 202.551902,124.666667 Z M227.503463,130.126984 C228.744535,130.126984 229.826779,129.969726 230.750196,129.655211 C231.673612,129.340695 232.630272,128.754552 233.620175,127.896783 C233.945217,127.625156 234.225936,127.31064 234.462331,126.953236 C234.550979,126.819209 234.62716,126.705287 234.690876,126.611468 L234.801686,126.450636 C234.84878,126.383623 234.883409,126.336714 234.905571,126.309909 L234.905571,126.309909 L234.905571,129.612322 L241.044444,129.612322 L241.044444,106.238095 L234.639627,106.238095 L234.639627,118.954533 C234.639627,120.45563 234.432781,121.663655 234.019091,122.57861 C233.221259,124.265557 231.743792,125.109031 229.586691,125.109031 C227.902379,125.109031 226.772117,124.51574 226.195905,123.329158 C225.870862,122.657239 225.708341,121.656507 225.708341,120.326964 L225.708341,120.326964 L225.708341,106.238095 L219.237037,106.238095 L219.237037,120.326964 C219.237037,123.000347 219.584242,125.023254 220.278651,126.395686 C221.519723,128.883218 223.927994,130.126984 227.503463,130.126984 Z M254.313441,130.126984 C256.000674,130.126984 257.411551,129.814569 258.54607,129.189738 C259.680589,128.564908 260.691474,127.563759 261.578726,126.186292 L261.578726,126.186292 L261.578726,129.402749 L267.622222,129.402749 L267.622222,98.047619 L261.316914,98.047619 L261.316914,109.124159 C260.618749,108.030706 259.709679,107.175114 258.589705,106.557384 C257.469731,105.939654 256.189761,105.630789 254.749794,105.630789 C251.622594,105.630789 249.12447,106.766844 247.255423,109.038955 C245.386376,111.311066 244.451852,114.428118 244.451852,118.390112 C244.451852,121.826679 245.400921,124.641967 247.299058,126.835974 C249.197196,129.029981 251.535324,130.126984 254.313441,130.126984 Z M255.958674,124.666667 C254.152584,124.666667 252.809212,124.008909 251.928557,122.693394 C251.032976,121.392335 250.585185,119.650361 250.585185,117.467474 C250.585185,115.443604 251.021781,113.748613 251.894973,112.382501 C252.768165,111.016389 254.137658,110.333333 256.003453,110.333333 C257.227414,110.333333 258.302112,110.709195 259.227546,111.460918 C260.735108,112.704152 261.488889,114.77139 261.488889,117.662632 C261.488889,119.729871 261.018709,121.414019 260.078348,122.715078 C259.137988,124.016137 257.764763,124.666667 255.958674,124.666667 Z M291.763239,130.126984 C295.790123,130.126984 298.906675,129.15036 301.112894,127.197111 C303.319113,125.243863 304.422222,122.7895 304.422222,119.834022 C304.422222,116.9517 303.47976,114.749724 301.594835,113.228092 C300.381058,112.24781 298.581811,111.465047 296.197096,110.879804 L296.197096,110.879804 L290.756517,109.541061 C288.657397,109.028973 287.286542,108.582725 286.643954,108.202317 C285.644373,107.631705 285.144582,106.768472 285.144582,105.612617 C285.144582,104.354344 285.651513,103.374062 286.665374,102.671771 C287.679235,101.969479 289.03581,101.618333 290.735098,101.618333 C292.263029,101.618333 293.541065,101.889008 294.569206,102.430358 C296.111417,103.249698 296.939642,104.632335 297.05388,106.578268 L297.05388,106.578268 L303.394081,106.578268 C303.279844,103.139965 302.048217,100.517345 299.6992,98.7104068 C297.350184,96.9034689 294.512087,96 291.184909,96 C287.200864,96 284.1807,96.9583355 282.124419,98.8750064 C280.068137,100.791677 279.039996,103.198489 279.039996,106.095442 C279.039996,109.270386 280.103836,111.604042 282.231517,113.096412 C283.488133,113.988908 285.758611,114.815563 289.042949,115.576379 L289.042949,115.576379 L292.384407,116.344511 C294.340731,116.783443 295.775844,117.288215 296.689747,117.858827 C297.60365,118.44407 298.060601,119.270726 298.060601,120.338794 C298.060601,122.167679 297.139558,123.418636 295.297473,124.091665 C294.326451,124.442811 293.062694,124.618384 291.506203,124.618384 C288.907292,124.618384 287.072346,123.95267 286.001366,122.621242 C285.415897,121.889688 285.023205,120.785042 284.823288,119.307304 L284.823288,119.307304 L278.525926,119.307304 C278.525926,122.672451 279.704004,125.317018 282.06016,127.241004 C284.416316,129.164991 287.650675,130.126984 291.763239,130.126984 Z M319.277484,130.126984 C322.933832,130.126984 325.777659,128.999464 327.808964,126.744424 C329.114803,125.32616 329.847524,123.929169 330.007126,122.553453 L330.007126,122.553453 L323.673808,122.553453 C323.340093,123.23422 322.955596,123.766069 322.520317,124.149 C321.722304,124.858132 320.684888,125.212698 319.408067,125.212698 C318.203794,125.212698 317.173632,124.921954 316.317582,124.340466 C314.910178,123.404411 314.162948,121.773408 314.075892,119.447454 L314.075892,119.447454 L330.311822,119.447454 C330.340841,117.447702 330.275549,115.915976 330.115946,114.852278 C329.840269,113.0369 329.238132,111.441352 328.309536,110.065636 C327.279374,108.505545 325.973535,107.363843 324.392019,106.640528 C322.810503,105.917213 321.033111,105.555556 319.059844,105.555556 C315.737209,105.555556 313.034848,106.626345 310.952761,108.767924 C308.870673,110.909503 307.82963,113.987137 307.82963,118.000825 C307.82963,122.283983 308.983121,125.375799 311.290103,127.276273 C313.597085,129.176747 316.259545,130.126984 319.277484,130.126984 Z M323.503704,115.111111 L313.962963,115.111111 C314.163972,113.643156 314.655726,112.479871 315.438224,111.621256 C316.220723,110.762641 317.322682,110.333333 318.744102,110.333333 C320.050659,110.333333 321.145439,110.738406 322.028442,111.548551 C322.911446,112.358696 323.403199,113.546216 323.503704,115.111111 L323.503704,115.111111 Z M335.919828,127.929893 C336.965287,129.031385 338.914926,129.532063 341.768746,129.431927 L341.768746,129.431927 L344.62963,129.324639 L344.62963,124.754163 C344.43184,124.768469 344.230519,124.779197 344.025665,124.78635 C343.820812,124.793502 343.626554,124.797079 343.442893,124.797079 C342.213772,124.797079 341.479125,124.679062 341.238953,124.443028 C340.99878,124.206994 340.878693,123.609756 340.878693,122.651315 L340.878693,122.651315 L340.878693,110.291719 L344.62963,110.291719 L344.62963,105.935819 L340.878693,105.935819 L340.878693,99.4126984 L334.902625,99.4126984 L334.902625,105.935819 L331.681481,105.935819 L331.681481,110.291719 L334.902625,110.291719 L334.902625,124.689791 C334.902625,126.14891 335.241692,127.228944 335.919828,127.929893 Z M356.303463,130.126984 C357.544535,130.126984 358.626779,129.969726 359.550196,129.655211 C360.473612,129.340695 361.430272,128.754552 362.420175,127.896783 C362.745217,127.625156 363.025936,127.31064 363.262331,126.953236 C363.350979,126.819209 363.42716,126.705287 363.490876,126.611468 L363.601686,126.450636 C363.64878,126.383623 363.683409,126.336714 363.705571,126.309909 L363.705571,126.309909 L363.705571,129.612322 L369.844444,129.612322 L369.844444,106.238095 L363.439627,106.238095 L363.439627,118.954533 C363.439627,120.45563 363.232781,121.663655 362.819091,122.57861 C362.021259,124.265557 360.543792,125.109031 358.386691,125.109031 C356.702379,125.109031 355.572117,124.51574 354.995905,123.329158 C354.670862,122.657239 354.508341,121.656507 354.508341,120.326964 L354.508341,120.326964 L354.508341,106.238095 L348.037037,106.238095 L348.037037,120.326964 C348.037037,123.000347 348.384242,125.023254 349.078651,126.395686 C350.319723,128.883218 352.727994,130.126984 356.303463,130.126984 Z M381.501467,139 L381.501467,126.68863 C382.161591,127.685677 382.836385,128.4443 383.525849,128.964499 C384.78742,129.903747 386.371719,130.373371 388.278745,130.373371 C391.271309,130.373371 393.717438,129.282398 395.617129,127.100454 C397.516821,124.918509 398.466667,121.746742 398.466667,117.585152 C398.466667,113.640311 397.498484,110.649168 395.562119,108.611723 C393.611084,106.574278 391.234636,105.555556 388.432774,105.555556 C386.511078,105.555556 384.853432,106.082979 383.459836,107.137827 C382.697026,107.730275 381.978223,108.539473 381.303429,109.565421 L381.303429,109.565421 L381.303429,106.075754 L375.296296,106.075754 L375.296296,139 L381.501467,139 Z M386.870287,124.666667 C385.646325,124.666667 384.586554,124.355005 383.690973,123.731681 C382.183411,122.665104 381.42963,120.81591 381.42963,118.184098 C381.42963,116.521901 381.653525,115.150588 382.101316,114.07016 C382.967044,112.033969 384.556701,111.015873 386.870287,111.015873 C388.795787,111.015873 390.18767,111.687678 391.045935,113.031287 C391.904201,114.374896 392.333333,115.919354 392.333333,117.664661 C392.333333,119.783963 391.866885,121.480789 390.933987,122.75514 C390.00109,124.029491 388.646523,124.666667 386.870287,124.666667 Z M412.194923,130.126984 C415.876977,130.126984 418.598337,129.381868 420.359002,127.891637 C422.119667,126.401406 423,124.478644 423,122.123352 C423,120.335074 422.386324,118.844843 421.158973,117.652658 C419.91701,116.475012 418.054065,115.595412 415.57014,115.013858 C411.844251,114.199683 409.674469,113.625399 409.060793,113.291005 C408.447117,112.971151 408.140279,112.455022 408.140279,111.742619 C408.140279,111.175604 408.428853,110.681283 409.006,110.259657 C409.583148,109.83803 410.551148,109.627217 411.910002,109.627217 C413.561082,109.627217 414.729988,110.048844 415.416721,110.892096 C415.782004,111.357339 416.008479,111.989779 416.096147,112.789415 L416.096147,112.789415 L422.34249,112.789415 C422.064875,109.881647 420.990942,107.83167 419.120692,106.639485 C417.235831,105.461839 414.803045,104.873016 411.822334,104.873016 C408.680898,104.873016 406.244459,105.661748 404.513017,107.239212 C402.781575,108.816677 401.915853,110.703091 401.915853,112.898457 C401.915853,114.759428 402.471084,116.184235 403.581545,117.172876 C404.692006,118.176056 406.598784,119.01204 409.30188,119.680826 C413.056991,120.567696 415.226773,121.192866 415.811227,121.556337 C416.39568,121.919808 416.687906,122.450476 416.687906,123.14834 C416.687906,123.875282 416.326276,124.420489 415.603015,124.78396 C414.879754,125.147431 413.904448,125.329166 412.677097,125.329166 C410.587677,125.329166 409.155766,124.914809 408.381366,124.086095 C407.943026,123.620852 407.658105,122.835755 407.526603,121.730803 L407.526603,121.730803 L401.192593,121.730803 C401.192593,124.173328 402.087536,126.183323 403.877424,127.760788 C405.667312,129.338252 408.439811,130.126984 412.194923,130.126984 Z" id="CloudSetups" fill="url(#linearGradient-2)"></path>
        </g>
    </g>
</svg>